<svg width="119" height="43" xmlns="http://www.w3.org/2000/svg" xmlns:xlink="http://www.w3.org/1999/xlink" xml:space="preserve" overflow="hidden"><defs><clipPath id="clip0"><rect x="144" y="17" width="119" height="43"/></clipPath></defs><g clip-path="url(#clip0)" transform="translate(-144 -17)"><path d="M42.4048 15.1607 30.2752 42.9608 38.7054 42.9608 50.8344 15.1607 42.4048 15.1607Z" fill="#1C46F0" transform="matrix(1.01214 0 0 1 144 17.0196)"/><path d="M77.5415 15.1607 65.4119 42.9608 73.8422 42.9608 85.9711 15.1607 77.5415 15.1607Z" fill="#1C46F0" transform="matrix(1.01214 0 0 1 144 17.0196)"/><path d="M61.4709 20.0751 58.4814 32.2391 54.7199 32.2391 61.4709 20.0751ZM57.1045 15.1607 40.8793 42.9608 48.9107 42.9608 51.9484 37.4837 57.1666 37.4837 55.8162 42.9608 63.3437 42.9608 70.7517 15.1607 57.1045 15.1607Z" fill="#1C46F0" transform="matrix(1.01214 0 0 1 144 17.0196)"/><path d="M11.495 11.2606 16.1823 11.2606C16.6597 10.9396 17.1365 10.6187 17.6146 10.2991 19.3131 9.16126 21.0135 8.02477 22.71 6.88366L22.7087 6.88366 32.9899 0 10.2258 9.04372 8.33845 9.79323 14.4528 9.79323 11.4943 11.2612Z" fill="#1C46F0" transform="matrix(1.01214 0 0 1 144 17.0196)"/><path d="M19.5317 39.3347 19.2411 39.3347 19.2299 39.3314C19.2094 39.3314 19.1883 39.3314 19.1678 39.3301 19.0602 39.3334 18.9525 39.3341 18.8442 39.3341L18.7967 39.3341C11.5379 39.3327 2.54241 34.7901 2.43939 26.5619 2.45392 25.4545 2.63024 24.4151 2.94061 23.443 2.9842 23.3037 3.03108 23.1657 3.08061 23.0296 3.63928 21.5048 4.53342 20.1564 5.65934 18.9954 6.05556 18.5444 6.47357 18.1132 6.91404 17.7044 7.09036 17.5327 7.29177 17.3947 7.4945 17.2402 9.10843 16.0892 10.7389 14.958 12.3779 13.8373 12.9637 13.4371 13.5494 13.0383 14.1371 12.6401L12.2003 12.6401C11.7862 12.8989 11.3709 13.1578 10.9575 13.418 9.29532 14.4944 7.57903 15.4882 5.99283 16.6795 4.41125 17.9204 3.00335 19.4319 1.96723 21.1634 1.68393 21.6376 1.42837 22.1289 1.20451 22.6354 1.17611 22.6994 1.1464 22.7622 1.11932 22.8275L1.1213 22.8289C0.398861 24.4587 0 26.2232 0 28.0682 0 36.2429 7.7745 42.8769 17.402 42.9595L17.402 42.9615 28.0273 42.9615 29.5184 39.3354 19.5317 39.3354Z" fill="#1C46F0" transform="matrix(1.01214 0 0 1 144 17.0196)"/><path d="M26.6464 34.275C28.0821 33.0487 29.1803 31.4737 29.7964 29.6934 30.157 28.654 30.3537 27.5439 30.3537 26.3922 30.3537 25.2405 30.157 24.1305 29.7977 23.091 29.2232 21.4322 28.2293 19.9523 26.9337 18.765 26.9885 18.7537 27.0413 18.7425 27.0962 18.7326 30.4403 20.4608 32.6181 23.2495 32.6181 26.3922 32.6181 29.5349 30.2448 32.5706 26.6464 34.275M5.79736 27.4112C5.74651 27.0763 5.71943 26.7363 5.71943 26.3922 5.71943 23.2238 7.93364 20.4146 11.3253 18.6897 11.3689 18.6989 11.4118 18.7088 11.4554 18.7181 10.1353 19.912 9.1223 21.4084 8.54052 23.0897 8.17996 24.1305 7.98317 25.2392 7.98317 26.3922 7.98317 27.5452 8.17996 28.6533 8.5392 29.6927 9.14938 31.4559 10.2317 33.0177 11.6475 34.24 11.6396 34.2413 11.6324 34.2433 11.6244 34.244 10.5573 33.7322 9.60041 33.1147 8.78155 32.4147 7.15705 31.022 6.08396 29.2991 5.7967 27.4118M22.5647 18.6798C22.2075 18.0181 21.8046 17.4608 21.3635 17.0309 22.2834 17.1372 23.1703 17.3108 24.0175 17.5426 24.5036 17.7823 24.9685 18.0551 25.4083 18.3608 24.4904 18.5002 23.5401 18.6065 22.5647 18.6798M21.7881 18.7313C21.7016 18.7366 21.6158 18.7405 21.5293 18.7445 20.7996 18.7821 20.06 18.8013 19.3131 18.8013 18.4916 18.8013 17.6807 18.7782 16.8829 18.7346 16.7746 18.7287 16.6657 18.7214 16.558 18.7141 17.0639 17.853 17.6516 17.2296 18.2836 16.9245 18.5761 16.9113 18.8706 16.9021 19.1678 16.9021 19.465 16.9021 19.7595 16.9113 20.052 16.9245 20.6886 17.2323 21.2796 17.8616 21.7881 18.7313M14.3181 17.5426C15.1647 17.3108 16.0522 17.1378 16.9721 17.0309 16.5362 17.4555 16.1374 18.0056 15.7834 18.658 14.8213 18.5788 13.8842 18.4671 12.9815 18.3239 13.4048 18.0333 13.8512 17.7724 14.3187 17.542M21.6924 23.408 19.1381 19.9034 16.5851 23.408 15.0207 23.408C15.2683 21.8509 15.6844 20.4575 16.2199 19.3514 17.2303 19.4227 18.2644 19.459 19.3144 19.459 20.2653 19.459 21.2057 19.4273 22.1276 19.3699 22.6572 20.4733 23.0706 21.8595 23.3175 23.4087L21.693 23.4087ZM19.0232 33.5915C18.03 33.5915 17.0493 33.6239 16.0905 33.6879 15.6348 32.6677 15.273 31.4308 15.0451 30.0619L16.5851 30.0619 19.1381 33.5671 21.6924 30.0619 23.2924 30.0619C23.062 31.4407 22.6975 32.6842 22.2378 33.7077 21.1898 33.6318 20.1148 33.5922 19.0238 33.5922M14.3207 35.2411C13.9522 35.0602 13.5956 34.8614 13.2549 34.6422 14.0282 34.5325 14.8252 34.446 15.6395 34.382 15.8851 34.87 16.1539 35.3078 16.4438 35.6855 15.7121 35.5792 15.0042 35.428 14.3207 35.2411M17.47 35.8037C17.085 35.4273 16.7271 34.9274 16.4048 34.3285 17.264 34.2776 18.1389 34.2506 19.0238 34.2506 20.0078 34.2506 20.9759 34.2829 21.9242 34.347 21.6045 34.9367 21.2499 35.43 20.8682 35.8037 20.3109 35.8533 19.7443 35.8817 19.1685 35.8817 18.5926 35.8817 18.026 35.8533 17.4687 35.8037M24.0169 35.2411C23.3334 35.428 22.6248 35.5792 21.8938 35.6855 22.1791 35.3138 22.4439 34.8839 22.6869 34.4031 23.4879 34.4711 24.2704 34.5623 25.0299 34.6752 24.705 34.8812 24.3662 35.0688 24.0169 35.2405M8.62307 26.3922C8.62307 24.6667 9.08928 23.0422 9.90814 21.625 10.513 20.5783 11.3134 19.6472 12.2571 18.87 13.0165 19.0047 13.801 19.1176 14.6073 19.2061 14.8913 19.2378 15.1792 19.2669 15.4684 19.2926 14.9448 20.4416 14.5459 21.8416 14.3134 23.4093L11.7367 23.4093 14.0797 26.6253C14.0797 26.6372 14.0784 26.6484 14.0784 26.6597 14.0784 26.7217 14.0803 26.7825 14.0817 26.8446L11.7367 30.0625 14.3379 30.0625C14.5538 31.4433 14.8985 32.6908 15.3449 33.7454 15.3218 33.7474 15.298 33.7494 15.2749 33.7513 14.3154 33.8339 13.3803 33.9481 12.4803 34.0947 11.4375 33.2825 10.5612 32.2866 9.9088 31.1587 9.08928 29.7416 8.62373 28.1171 8.62373 26.3922M28.4281 21.6257C29.2476 23.0422 29.7132 24.666 29.7132 26.3922 29.7132 28.1184 29.247 29.7416 28.4281 31.1587 27.7651 32.3051 26.8697 33.3148 25.8038 34.133 24.8971 33.9798 23.9528 33.859 22.9834 33.7698L22.9814 33.7698C23.4331 32.7099 23.7811 31.4539 23.9984 30.0625L26.5395 30.0625 24.2533 26.9258C24.2546 26.8373 24.2572 26.7495 24.2572 26.6597 24.2572 26.6214 24.2553 26.5824 24.2553 26.5441L26.5395 23.4093 24.0228 23.4093C23.791 21.8528 23.3961 20.4615 22.8784 19.3157 23.1914 19.2906 23.5018 19.2609 23.8095 19.2286 24.6033 19.1453 25.3779 19.0397 26.1281 18.9116 27.0519 19.6809 27.8338 20.5982 28.4275 21.6263M19.1678 15.3007C11.5808 15.3007 5.29086 19.459 4.26531 24.8456 4.16889 25.3515 4.11606 25.8672 4.11606 26.3929 4.11606 29.9905 6.45376 33.192 10.0673 35.22L10.0765 35.2537C10.0878 35.2504 10.0996 35.2477 10.1109 35.2457 10.4529 35.4353 10.8082 35.6155 11.1727 35.7839 13.4913 36.8603 16.2318 37.4844 19.1678 37.4844 22.5238 37.4844 25.6275 36.6702 28.1329 35.2966 28.1732 35.3065 28.2155 35.3171 28.2558 35.327L28.2861 35.2094C31.8891 33.1808 34.2189 29.9839 34.2189 26.3935 34.2189 20.2772 27.4666 15.3014 19.1671 15.3014" fill="#1C46F0" transform="matrix(1.01214 0 0 1 144 17.0196)"/><path d="M89.6692 42.9383 83.4366 42.9364C83.2154 42.9364 83.1494 42.834 83.2379 42.6286L87.9819 31.625C88.0704 31.4209 88.2243 31.3185 88.4449 31.3185L94.6774 31.3205C94.8854 31.3205 94.9455 31.4229 94.857 31.6269L94.4601 32.5488C94.3717 32.7542 94.2237 32.8565 94.0157 32.8565L89.5754 32.8546C89.4202 32.8546 89.3152 32.9153 89.2637 33.0355L87.9483 36.089C87.8954 36.2099 87.9483 36.27 88.1035 36.27L91.8629 36.2713C92.0967 36.2713 92.1687 36.3736 92.0815 36.579L91.6833 37.5009C91.5948 37.7063 91.4343 37.8073 91.2012 37.8073L87.4418 37.806C87.2866 37.806 87.1816 37.8661 87.1301 37.9869L85.7433 41.2029C85.6865 41.3356 85.736 41.4017 85.8912 41.4017L90.3315 41.403C90.5389 41.403 90.5983 41.5054 90.5112 41.7107L90.1129 42.6313C90.0245 42.8367 89.8765 42.939 89.6692 42.939" fill="#1C46F0" transform="matrix(1.01214 0 0 1 144 17.0196)"/><path d="M98.3167 42.941 92.0062 42.939C91.7857 42.939 91.719 42.8367 91.8081 42.6313L96.5509 31.6276C96.6394 31.4235 96.7932 31.3212 97.0151 31.3212L98.2414 31.3212C98.4626 31.3212 98.5287 31.4235 98.4402 31.6289L94.3195 41.1871C94.268 41.3079 94.3195 41.368 94.476 41.368L98.9949 41.37C99.2154 41.37 99.2788 41.4776 99.1857 41.6949L98.7809 42.6339C98.6924 42.8393 98.5372 42.9417 98.3167 42.9417" fill="#1C46F0" transform="matrix(1.01214 0 0 1 144 17.0196)"/><path d="M103.088 42.9423 101.861 42.9423C101.627 42.9423 101.554 42.84 101.642 42.6346L105.779 33.0401C105.831 32.9206 105.791 32.8592 105.662 32.8592L103.208 32.8592C102.974 32.8592 102.902 32.7568 102.989 32.5514L103.386 31.6296C103.475 31.4255 103.636 31.3232 103.87 31.3232L111.096 31.3251C111.33 31.3251 111.403 31.4275 111.315 31.6316L110.916 32.5534C110.828 32.7588 110.668 32.8612 110.434 32.8612L107.98 32.8598C107.837 32.8598 107.74 32.9199 107.689 33.0408L103.553 42.6346C103.464 42.84 103.309 42.9423 103.088 42.9423" fill="#1C46F0" transform="matrix(1.01214 0 0 1 144 17.0196)"/><path d="M115.47 33.0606 111.264 38.8421 114.79 38.8434 115.549 33.0619 115.471 33.0606ZM108.015 42.9436 106.614 42.9436C106.431 42.9436 106.411 42.8413 106.551 42.6359L114.684 31.6329C114.836 31.4288 115.037 31.3251 115.284 31.3265L117.232 31.3265C117.492 31.3265 117.603 31.4288 117.566 31.6342L116.212 42.6392C116.176 42.8446 116.059 42.9456 115.865 42.9456L114.482 42.9456C114.365 42.9456 114.293 42.9245 114.266 42.8816 114.238 42.84 114.238 42.7587 114.264 42.6379L114.537 40.289 110.252 40.2876 108.5 42.6359C108.359 42.8413 108.198 42.9436 108.017 42.9436" fill="#1C46F0" transform="matrix(1.01214 0 0 1 144 17.0196)"/></g></svg>